<?xml version="1.0" encoding="utf-8"?>
<svg xmlns="http://www.w3.org/2000/svg" xmlns:xlink="http://www.w3.org/1999/xlink" x="0px" y="0px"
	 viewBox="0 0 24 24" style="enable-background:new 0 0 24 24;" xml:space="preserve">
<path fill="none" d="M0,0h24v24H0V0z"/>
<path d="M12,16c0-1.1,0.9-2,2-2h2v-2c0-1.1,0.9-2,2-2V8c0-1.1-0.9-2-2-2h-2V4c0-1.1-0.9-2-2-2H8C6.9,2,6,2.9,6,4v2H4
	C2.9,6,2,6.9,2,8l0,7c0,1.1,0.9,2,2,2h8.3C12.1,16.7,12,16.4,12,16z M8,4h4v2H8V4z"/>
<path d="M19,15v-3c0-0.6-0.5-1-1-1s-1,0.4-1,1v3h-3c-0.6,0-1,0.5-1,1s0.4,1,1,1h3v3c0,0.5,0.5,1,1,1s1-0.5,1-1v-3h3c0.5,0,1-0.5,1-1
	s-0.5-1-1-1H19z"/>
</svg>
