<?xml version="1.0" encoding="utf-8"?>
<!-- Generator: Adobe Illustrator 23.0.3, SVG Export Plug-In . SVG Version: 6.00 Build 0)  -->
<svg version="1.1" id="Layer_1" xmlns="http://www.w3.org/2000/svg" xmlns:xlink="http://www.w3.org/1999/xlink" x="0px" y="0px"
	 viewBox="0 0 64 57" style="enable-background:new 0 0 64 57;" xml:space="preserve">
<g>
	<path d="M32.5,36L32.5,36c-1.4,0-2.5-1.1-2.5-2.5v-15c0-1.4,1.1-2.5,2.5-2.5h0c1.4,0,2.5,1.1,2.5,2.5v15C35,34.9,33.9,36,32.5,36z"
		/>
</g>
<g>
	<path d="M32.5,46L32.5,46c-1.4,0-2.5-1.1-2.5-2.5v0c0-1.4,1.1-2.5,2.5-2.5h0c1.4,0,2.5,1.1,2.5,2.5v0C35,44.9,33.9,46,32.5,46z"/>
</g>
<g>
	<path d="M32.5,3c2.2,0,4.3,1.2,5.4,3.1l22.3,38.5c1.1,1.9,1.1,4.3,0,6.2c-1.1,2-3.1,3.1-5.4,3.1H10.2C8,54,6,52.8,4.8,50.9
		c-1.1-2-1.1-4.3,0-6.2L27.1,6.1C28.3,4.2,30.3,3,32.5,3 M32.5,0c-3.1,0-6.2,1.5-8,4.6L2.3,43.1c-3.6,6.2,0.9,13.9,8,13.9h44.6
		c7.1,0,11.5-7.7,8-13.9L40.5,4.6C38.7,1.6,35.6,0,32.5,0L32.5,0z"/>
</g>
</svg>
