<?xml version="1.0" encoding="utf-8"?>
<svg xmlns="http://www.w3.org/2000/svg" xmlns:xlink="http://www.w3.org/1999/xlink" x="0px" y="0px"
	 viewBox="0 0 24 24" style="enable-background:new 0 0 24 24;" xml:space="preserve">

<path fill="none" d="M0,0h24v24H0V0z"/>
<path d="M15.9,16l1.4-1.4l-3.9-3.9L10.1,14c-0.4,0.4-1,0.4-1.4,0l-5-5c-0.4-0.4-0.4-1,0-1.4s1-0.4,1.4,0l4.3,4.3l3.3-3.3
	c0.4-0.4,1-0.4,1.4,0l4.6,4.6l1.4-1.4c0.3-0.3,0.9-0.1,0.9,0.4v4.3c0,0.3-0.2,0.5-0.5,0.5h-4.3C15.8,16.9,15.6,16.4,15.9,16z"/>
</svg>
