<?xml version="1.0" encoding="utf-8"?>
<!-- Generator: Adobe Illustrator 23.0.3, SVG Export Plug-In . SVG Version: 6.00 Build 0)  -->
<svg version="1.1" xmlns="http://www.w3.org/2000/svg" viewBox="0 0 24 24">
<g>
	<path d="M18,5v13H6c-0.6,0-1-0.4-1-1V5H18 M19,4H4v13c0,1.1,0.9,2,2,2h13V4L19,4z"/>
</g>
<g>
	<path d="M18.5,18.5v-10h2V18c0,0.3-0.2,0.5-0.5,0.5H18.5z"/>
	<path d="M20,9v9h-1V9H20 M21,8h-3v11h2c0.6,0,1-0.4,1-1V8L21,8z"/>
</g>
<g>
	<rect x="6.5" y="9.5" width="4" height="6"/>
	<path d="M10,10v5H7v-5H10 M11,9H6v7h5V9L11,9z"/>
</g>
<g>
	<rect x="6" y="7" width="11" height="1"/>
	<polygon points="17,7 6,7 6,8 17,8 17,7 	"/>
</g>
<g>
	<rect x="12" y="9" width="5" height="1"/>
	<polygon points="17,9 12,9 12,10 17,10 17,9 	"/>
</g>
<g>
	<rect x="12" y="11" width="5" height="1"/>
	<polygon points="17,11 12,11 12,12 17,12 17,11 	"/>
</g>
<g>
	<rect x="12" y="13" width="5" height="1"/>
	<polygon points="17,13 12,13 12,14 17,14 17,13 	"/>
</g>
<g>
	<rect x="12" y="15" width="5" height="1"/>
	<polygon points="17,15 12,15 12,16 17,16 17,15 	"/>
</g>
</svg>
