<?xml version="1.0" encoding="utf-8"?>
<svg xmlns="http://www.w3.org/2000/svg" xmlns:xlink="http://www.w3.org/1999/xlink" x="0px" y="0px"
	 viewBox="0 0 24 24" style="enable-background:new 0 0 24 24;" xml:space="preserve">
<path fill="none" d="M0,0h24v24H0V0z"/>
<path d="M9.5,7.8V15c0,0.6-0.4,1-1,1s-1-0.4-1-1V7.8H5.7c-0.5,0-0.8-0.5-0.4-0.9l2.9-2.8C8.3,4,8.6,4,8.8,4.1l2.8,2.8
	c0.3,0.3,0.1,0.9-0.4,0.9H9.5z M13.7,15.2h1.8V8c0-0.5,0.4-1,1-1c0.6,0,1,0.5,1,1v7.2h1.8c0.4,0,0.7,0.5,0.4,0.9l-2.8,2.8
	c-0.2,0.2-0.5,0.2-0.7,0l-2.8-2.8C13,15.8,13.3,15.2,13.7,15.2z"/>
</svg>
