<?xml version="1.0" encoding="utf-8"?>
<svg version="1.1" id="Layer_1" xmlns="http://www.w3.org/2000/svg" xmlns:xlink="http://www.w3.org/1999/xlink" x="0px" y="0px"
	 viewBox="0 0 24 24" style="enable-background:new 0 0 24 24;" xml:space="preserve">
<path fill="none" d="M0,0h24v24H0V0z"/>
<path d="M18,19H6c-0.6,0-1-0.5-1-1V6c0-0.6,0.4-1,1-1h5c0.6,0,1-0.4,1-1s-0.4-1-1-1H5C3.9,3,3,3.9,3,5v14c0,1.1,0.9,2,2,2h14
	c1.1,0,2-0.9,2-2v-6c0-0.6-0.5-1-1-1s-1,0.4-1,1v5C19,18.5,18.5,19,18,19z M14,4c0,0.6,0.4,1,1,1h2.6l-9.1,9.1c-0.4,0.4-0.4,1,0,1.4
	s1,0.4,1.4,0L19,6.4V9c0,0.6,0.5,1,1,1s1-0.4,1-1V4c0-0.5-0.5-1-1-1h-5C14.4,3,14,3.5,14,4z"/>
</svg>
