<?xml version="1.0" encoding="utf-8"?>
<svg xmlns="http://www.w3.org/2000/svg" version="1.1" viewBox="0 0 152 152">
<defs>
	<filter id="up-left-shadow">
		<feOffset result="offOut" in="SourceGraphic" dx="1" dy="1"/>
		<feGaussianBlur result="blurOut" in="SourceAlpha" stdDeviation="3" />
		<feComponentTransfer in="blurOut" result="transferOut">
    		<feFuncA type="linear" slope="0.15"/>
  		</feComponentTransfer>
		<feMerge> 
    		<feMergeNode in="transferOut"/>
    		<feMergeNode in="offOut"/>
  		</feMerge>
	</filter>
	<filter id="down-left-shadow">
		<feOffset result="offOut" in="SourceGraphic" dx="1" dy="-1"/>
		<feGaussianBlur result="blurOut" in="SourceAlpha" stdDeviation="2" />
		<feComponentTransfer in="blurOut" result="transferOut">
    		<feFuncA type="linear" slope="0.15"/>
  		</feComponentTransfer>
		<feMerge> 
    		<feMergeNode in="transferOut"/>
    		<feMergeNode in="offOut"/>
  		</feMerge>
	</filter>
	<linearGradient id="background-fill" gradientUnits="userSpaceOnUse" x1="76.0221" y1="152.0529" x2="76.0221" y2="5.294118e-02">
		<stop  offset="0" style="stop-color:#F37252"/>
		<stop  offset="0.3442" style="stop-color:#F37454"/>
		<stop  offset="0.6103" style="stop-color:#F47A5B"/>
		<stop  offset="0.8495" style="stop-color:#F58366"/>
		<stop  offset="1" style="stop-color:#F58B70"/>
	</linearGradient>
	<clipPath id="clip">
		<circle cx="76.5" cy="76.5" r="76.5"/>
	</clipPath>
</defs>
<g clip-path="url(#clip)">
<path d="M137.1,152.1H15c-8.3,0-15-6.7-15-15V15c0-8.3,6.7-15,15-15h122.1c8.3,0,15,6.7,15,15v122.1C152,145.4,145.3,152.1,137.1,152.1z" fill="url(#background-fill)"/>
<g transform="translate(-1,-1)">
	<path fill="#FFFFFF" filter="url(#up-left-shadow)" d="M51.1,39.1L51.1,39.1c5.6,5.6,5.6,14.6,0,20.1l-53.9,53.9c-5.6,5.6-14.6,5.6-20.1,0l0,0c-5.6-5.6-5.6-14.6,0-20.1L31,39.1C36.6,33.6,45.6,33.6,51.1,39.1z"/>
</g>
<g transform="translate(1,-1)">
	<path fill="#FFFFFF" filter="url(#down-left-shadow)" d="M31,39.1L31,39.1c5.6-5.6,14.6-5.6,20.1,0L105,93c5.6,5.6,5.6,14.6,0,20.1l0,0c-5.6,5.6-14.6,5.6-20.1,0L31,59.2C25.5,53.7,25.5,44.7,31,39.1z"/>
</g>
<g transform="translate(1,-3)">
	<path fill="#FFFFFF" filter="url(#up-left-shadow)" d="M172.4,25.8L172.4,25.8c5.6,5.6,5.6,14.6,0,20.1l-67.3,67.3c-5.6,5.6-14.6,5.6-20.1,0l0,0c-5.6-5.6-5.6-14.6,0-20.1l67.3-67.3C157.8,20.2,166.8,20.2,172.4,25.8z"/>
</g>
</g>
</svg>
