<?xml version="1.0" encoding="utf-8"?>
<!-- Generator: Adobe Illustrator 23.0.3, SVG Export Plug-In . SVG Version: 6.00 Build 0)  -->
<svg version="1.1" xmlns="http://www.w3.org/2000/svg" viewBox="0 0 24 24">
<rect x="14.8" y="14.8" transform="matrix(0.7071 -0.7071 0.7071 0.7071 -6.3345 15.2929)" width="1" height="1"/>
<path d="M19.2,20.7c0.4,0.4,1.1,0.4,1.5,0c0.4-0.4,0.4-1.1,0-1.5l-3.9-3.9c-0.4-0.4-1.1-0.4-1.5,0c-0.4,0.4-0.4,1.1,0,1.5L19.2,20.7
	z"/>
<path d="M10.5,4C6.9,4,4,6.9,4,10.5S6.9,17,10.5,17s6.5-2.9,6.5-6.5S14.1,4,10.5,4z M10.5,15C8,15,6,13,6,10.5S8,6,10.5,6
	S15,8,15,10.5S13,15,10.5,15z"/>
</svg>
