<?xml version="1.0" encoding="utf-8"?>
<svg version="1.1" id="Layer_1" xmlns="http://www.w3.org/2000/svg" xmlns:xlink="http://www.w3.org/1999/xlink" x="0px" y="0px"
	 viewBox="0 0 24 24" style="enable-background:new 0 0 24 24;" xml:space="preserve">
<path fill="none" d="M0,0h24v24H0V0z"/>
<path d="M7.2,19c-1.1,0-2,0.9-2,2s0.9,2,2,2s2-0.9,2-2S8.3,19,7.2,19z M17.2,19c-1.1,0-2,0.9-2,2s0.9,2,2,2s2-0.9,2-2
	S18.3,19,17.2,19z M8.3,14h7.4c0.7,0,1.4-0.4,1.7-1l3.4-6.1c0.3-0.5,0.1-1.1-0.4-1.4c-0.5-0.3-1.1-0.1-1.4,0.4L15.7,12h-7l-4-8.4
	C4.6,3.2,4.2,3,3.8,3H2.2c-0.6,0-1,0.5-1,1s0.5,1,1,1h1l3.6,7.6L5.4,15c-0.7,1.3,0.2,3,1.8,3h11c0.5,0,1-0.5,1-1s-0.5-1-1-1h-11
	L8.3,14z"/>
<path d="M11,4.8L11,9c0,0.6,0.5,1,1,1s1-0.5,1-1l0-4.2l1.8,0c0.5,0,0.7-0.5,0.3-0.9l-2.8-2.8c-0.2-0.2-0.5-0.2-0.7,0L8.9,3.9
	C8.5,4.2,8.8,4.8,9.2,4.8L11,4.8z"/>
</svg>
